# Blender v2.62 (sub 0) OBJ File: 'string-apparatus.blend'
# www.blender.org
mtllib MassHolder.mtl
o MassHolder_Cylinder
v 1.025424 -0.499977 -0.005000
v 1.026399 -0.499994 -0.004904
v 1.027337 -0.500011 -0.004619
v 1.028201 -0.500026 -0.004157
v 1.028959 -0.500039 -0.003536
v 1.029580 -0.500050 -0.002778
v 1.030043 -0.500058 -0.001913
v 1.030327 -0.500063 -0.000975
v 1.030423 -0.500064 -0.000000
v 1.030327 -0.500063 0.000975
v 1.030043 -0.500058 0.001913
v 1.029580 -0.500050 0.002778
v 1.028959 -0.500039 0.003536
v 1.028201 -0.500026 0.004157
v 1.027337 -0.500011 0.004619
v 1.026399 -0.499994 0.004904
v 1.025424 -0.499977 0.005000
v 1.024449 -0.499960 0.004904
v 1.023511 -0.499944 0.004619
v 1.022646 -0.499929 0.004157
v 1.021889 -0.499916 0.003536
v 1.021267 -0.499905 0.002778
v 1.020805 -0.499897 0.001913
v 1.020521 -0.499892 0.000975
v 1.020424 -0.499890 -0.000000
v 1.020521 -0.499892 -0.000975
v 1.020805 -0.499897 -0.001913
v 1.021267 -0.499905 -0.002778
v 1.021889 -0.499916 -0.003536
v 1.022646 -0.499929 -0.004157
v 1.023511 -0.499944 -0.004619
v 1.024449 -0.499960 -0.004904
v 1.028306 -0.028251 -0.005000
v 1.029282 -0.028268 -0.004904
v 1.030220 -0.028285 -0.004619
v 1.031084 -0.028300 -0.004157
v 1.031842 -0.028313 -0.003536
v 1.032463 -0.028324 -0.002778
v 1.032925 -0.028332 -0.001913
v 1.033210 -0.028337 -0.000975
v 1.033306 -0.028339 0.000000
v 1.033210 -0.028337 0.000975
v 1.032925 -0.028332 0.001913
v 1.032463 -0.028324 0.002778
v 1.031842 -0.028313 0.003536
v 1.031084 -0.028300 0.004157
v 1.030220 -0.028285 0.004619
v 1.029282 -0.028268 0.004904
v 1.028306 -0.028251 0.005000
v 1.027331 -0.028234 0.004904
v 1.026393 -0.028218 0.004619
v 1.025529 -0.028203 0.004157
v 1.024772 -0.028190 0.003536
v 1.024150 -0.028179 0.002778
v 1.023688 -0.028171 0.001913
v 1.023403 -0.028166 0.000975
v 1.023307 -0.028164 0.000000
v 1.023403 -0.028166 -0.000975
v 1.023688 -0.028171 -0.001913
v 1.024150 -0.028179 -0.002778
v 1.024771 -0.028190 -0.003535
v 1.025529 -0.028203 -0.004157
v 1.026393 -0.028218 -0.004619
v 1.027331 -0.028234 -0.004904
v 1.025424 -0.499977 0.000000
v 1.028306 -0.028251 0.000000
v 1.028041 -0.524917 -0.077959
v 1.043250 -0.524917 -0.076461
v 1.057875 -0.524917 -0.072024
v 1.071353 -0.524917 -0.064820
v 1.083166 -0.524917 -0.055125
v 1.092862 -0.524917 -0.043311
v 1.100066 -0.524917 -0.029833
v 1.104502 -0.524917 -0.015209
v 1.106000 -0.524917 -0.000000
v 1.104502 -0.524917 0.015209
v 1.100066 -0.524917 0.029833
v 1.092862 -0.524917 0.043311
v 1.083166 -0.524917 0.055125
v 1.071353 -0.524917 0.064820
v 1.057875 -0.524917 0.072024
v 1.043250 -0.524917 0.076461
v 1.028041 -0.524917 0.077959
v 1.012832 -0.524917 0.076461
v 0.998208 -0.524917 0.072024
v 0.984730 -0.524917 0.064820
v 0.972916 -0.524917 0.055125
v 0.963221 -0.524917 0.043311
v 0.956017 -0.524917 0.029833
v 0.951581 -0.524917 0.015209
v 0.950083 -0.524917 -0.000000
v 0.951581 -0.524917 -0.015209
v 0.956017 -0.524917 -0.029834
v 0.963221 -0.524917 -0.043312
v 0.972916 -0.524917 -0.055125
v 0.984730 -0.524917 -0.064820
v 0.998208 -0.524917 -0.072024
v 1.012833 -0.524917 -0.076461
v 1.028041 -0.475083 -0.077959
v 1.043250 -0.475083 -0.076461
v 1.057875 -0.475083 -0.072024
v 1.071353 -0.475083 -0.064820
v 1.083166 -0.475083 -0.055125
v 1.092862 -0.475083 -0.043311
v 1.100066 -0.475083 -0.029833
v 1.104502 -0.475083 -0.015209
v 1.106000 -0.475083 0.000000
v 1.104502 -0.475083 0.015209
v 1.100066 -0.475083 0.029834
v 1.092861 -0.475083 0.043312
v 1.083166 -0.475083 0.055125
v 1.071353 -0.475083 0.064820
v 1.057875 -0.475083 0.072024
v 1.043250 -0.475083 0.076461
v 1.028041 -0.475083 0.077959
v 1.012833 -0.475083 0.076461
v 0.998208 -0.475083 0.072024
v 0.984730 -0.475083 0.064820
v 0.972916 -0.475083 0.055125
v 0.963221 -0.475083 0.043312
v 0.956017 -0.475083 0.029834
v 0.951581 -0.475083 0.015209
v 0.950083 -0.475083 0.000000
v 0.951581 -0.475083 -0.015209
v 0.956017 -0.475083 -0.029833
v 0.963221 -0.475083 -0.043311
v 0.972916 -0.475083 -0.055125
v 0.984730 -0.475083 -0.064820
v 0.998207 -0.475083 -0.072024
v 1.012832 -0.475083 -0.076460
v 1.028041 -0.524917 0.000000
v 1.028041 -0.475083 0.000000
vn -0.017444 -0.999848 0.000000
vn 0.017444 0.999848 0.000000
vn 0.017474 0.999847 0.000006
vn -0.017445 -0.999848 -0.000001
vn 0.017420 0.999848 -0.000016
vn -0.017457 -0.999848 -0.000008
vn 0.017457 0.999848 0.000008
vn -0.017448 -0.999848 0.000001
vn 0.017469 0.999847 0.000021
vn -0.017473 -0.999847 -0.000037
vn 0.017427 0.999848 -0.000042
vn -0.017450 -0.999848 0.000018
vn 0.017462 0.999848 0.000042
vn -0.017452 -0.999848 0.000008
vn 0.017452 0.999848 -0.000008
vn -0.017452 -0.999848 -0.000008
vn 0.017452 0.999848 0.000008
vn -0.017450 -0.999848 -0.000018
vn 0.017462 0.999848 -0.000042
vn -0.017473 -0.999847 0.000037
vn 0.017427 0.999848 0.000042
vn -0.017448 -0.999848 -0.000001
vn 0.017469 0.999847 -0.000021
vn -0.017457 -0.999848 0.000008
vn 0.017457 0.999848 -0.000008
vn -0.017445 -0.999848 0.000001
vn 0.017420 0.999848 0.000016
vn 0.017474 0.999847 -0.000006
vn -0.017446 -0.999848 -0.000000
vn 0.017446 0.999848 0.000000
vn -0.017474 -0.999847 -0.000005
vn 0.017474 0.999847 0.000005
vn -0.017418 -0.999848 0.000018
vn 0.017448 0.999848 -0.000005
vn 0.017436 0.999848 -0.000014
vn -0.017469 -0.999847 -0.000021
vn 0.017468 0.999847 0.000019
vn -0.017445 -0.999848 0.000015
vn 0.017445 0.999848 -0.000015
vn -0.017456 -0.999848 -0.000010
vn 0.017456 0.999848 0.000010
vn 0.017453 0.999848 -0.000006
vn 0.017453 0.999848 0.000006
vn -0.017456 -0.999848 0.000010
vn 0.017456 0.999848 -0.000010
vn -0.017445 -0.999848 -0.000015
vn 0.017445 0.999848 0.000015
vn -0.017469 -0.999847 0.000021
vn 0.017435 0.999848 0.000013
vn -0.017418 -0.999848 -0.000018
vn 0.017448 0.999848 0.000005
vn -0.017474 -0.999847 0.000005
vn 0.098016 -0.000599 -0.995185
vn 0.290298 -0.001774 -0.956935
vn 0.471427 -0.002881 -0.881900
vn 0.634403 -0.003877 -0.772993
vn 0.773038 -0.004724 -0.634342
vn 0.881885 -0.005389 -0.471433
vn 0.956942 -0.005848 -0.290219
vn 0.995164 -0.006081 -0.098035
vn 0.995164 -0.006081 0.098035
vn 0.956942 -0.005848 0.290219
vn 0.881885 -0.005389 0.471434
vn 0.773037 -0.004724 0.634343
vn 0.634402 -0.003877 0.772994
vn 0.471426 -0.002881 0.881901
vn 0.290298 -0.001774 0.956935
vn 0.098015 -0.000599 0.995185
vn -0.098026 0.000599 0.995184
vn -0.290297 0.001774 0.956935
vn -0.471400 0.002881 0.881915
vn -0.634401 0.003877 0.772994
vn -0.773007 0.004724 0.634380
vn -0.881936 0.005389 0.471339
vn -0.956908 0.005848 0.290331
vn -0.995170 0.006082 0.097975
vn -0.995170 0.006082 -0.097975
vn -0.956909 0.005848 -0.290330
vn -0.881936 0.005390 -0.471339
vn -0.773038 0.004724 -0.634342
vn -0.634403 0.003877 -0.772993
vn -0.471402 0.002881 -0.881914
vn -0.290299 0.001774 -0.956934
vn -0.098023 0.000599 -0.995184
vn -0.000000 -1.000000 0.000000
vn 0.000000 1.000000 -0.000000
vn 0.098018 -0.000000 -0.995185
vn 0.290285 0.000000 -0.956940
vn 0.471396 -0.000000 -0.881921
vn 0.634395 -0.000000 -0.773009
vn 0.773010 -0.000000 -0.634394
vn 0.881922 0.000000 -0.471395
vn 0.956941 0.000001 -0.290282
vn 0.995185 0.000000 -0.098019
vn 0.995185 -0.000000 0.098019
vn 0.956940 0.000000 0.290287
vn 0.881920 0.000001 0.471399
vn 0.773011 0.000000 0.634392
vn 0.634392 0.000000 0.773011
vn 0.471397 0.000000 0.881921
vn 0.290285 0.000000 0.956940
vn 0.098018 0.000000 0.995185
vn -0.098017 -0.000000 0.995185
vn -0.290283 -0.000000 0.956941
vn -0.471396 0.000000 0.881921
vn -0.634392 -0.000000 0.773011
vn -0.773011 0.000000 0.634393
vn -0.881921 0.000000 0.471397
vn -0.956939 -0.000000 0.290288
vn -0.995185 -0.000000 0.098017
vn -0.995185 -0.000000 -0.098015
vn -0.956941 -0.000001 -0.290283
vn -0.881922 -0.000000 -0.471395
vn -0.773012 0.000001 -0.634392
vn -0.634395 0.000000 -0.773009
vn -0.471399 -0.000000 -0.881920
vn -0.290287 0.000000 -0.956940
vn -0.098018 0.000001 -0.995185
usemtl 
s off
f 65//1 1//1 2//1
f 66//2 34//2 33//2
f 65//1 2//1 3//1
f 66//3 35//3 34//3
f 65//4 3//4 4//4
f 66//5 36//5 35//5
f 65//6 4//6 5//6
f 66//7 37//7 36//7
f 65//8 5//8 6//8
f 66//9 38//9 37//9
f 65//10 6//10 7//10
f 66//11 39//11 38//11
f 65//12 7//12 8//12
f 66//13 40//13 39//13
f 65//14 8//14 9//14
f 66//15 41//15 40//15
f 65//16 9//16 10//16
f 66//17 42//17 41//17
f 65//18 10//18 11//18
f 66//19 43//19 42//19
f 65//20 11//20 12//20
f 66//21 44//21 43//21
f 65//22 12//22 13//22
f 66//23 45//23 44//23
f 65//24 13//24 14//24
f 66//25 46//25 45//25
f 65//26 14//26 15//26
f 66//27 47//27 46//27
f 65//1 15//1 16//1
f 66//28 48//28 47//28
f 65//1 16//1 17//1
f 66//2 49//2 48//2
f 65//29 17//29 18//29
f 66//30 50//30 49//30
f 65//31 18//31 19//31
f 66//32 51//32 50//32
f 65//33 19//33 20//33
f 66//34 52//34 51//34
f 65//6 20//6 21//6
f 66//35 53//35 52//35
f 65//36 21//36 22//36
f 66//37 54//37 53//37
f 65//38 22//38 23//38
f 66//39 55//39 54//39
f 65//40 23//40 24//40
f 66//41 56//41 55//41
f 65//14 24//14 25//14
f 66//42 57//42 56//42
f 65//16 25//16 26//16
f 66//43 58//43 57//43
f 65//44 26//44 27//44
f 66//45 59//45 58//45
f 65//46 27//46 28//46
f 66//47 60//47 59//47
f 65//48 28//48 29//48
f 66//23 61//23 60//23
f 65//24 29//24 30//24
f 66//49 62//49 61//49
f 65//50 30//50 31//50
f 66//51 63//51 62//51
f 65//52 31//52 32//52
f 66//28 64//28 63//28
f 32//29 1//29 65//29
f 66//2 33//2 64//2
f 1//53 33//53 34//53 2//53
f 2//54 34//54 35//54 3//54
f 3//55 35//55 36//55 4//55
f 4//56 36//56 37//56 5//56
f 5//57 37//57 38//57 6//57
f 6//58 38//58 39//58 7//58
f 7//59 39//59 40//59 8//59
f 8//60 40//60 41//60 9//60
f 9//61 41//61 42//61 10//61
f 10//62 42//62 43//62 11//62
f 11//63 43//63 44//63 12//63
f 12//64 44//64 45//64 13//64
f 13//65 45//65 46//65 14//65
f 14//66 46//66 47//66 15//66
f 15//67 47//67 48//67 16//67
f 16//68 48//68 49//68 17//68
f 17//69 49//69 50//69 18//69
f 18//70 50//70 51//70 19//70
f 19//71 51//71 52//71 20//71
f 20//72 52//72 53//72 21//72
f 21//73 53//73 54//73 22//73
f 22//74 54//74 55//74 23//74
f 23//75 55//75 56//75 24//75
f 24//76 56//76 57//76 25//76
f 25//77 57//77 58//77 26//77
f 26//78 58//78 59//78 27//78
f 27//79 59//79 60//79 28//79
f 28//80 60//80 61//80 29//80
f 29//81 61//81 62//81 30//81
f 30//82 62//82 63//82 31//82
f 31//83 63//83 64//83 32//83
f 33//84 1//84 32//84 64//84
f 131//85 67//85 68//85
f 132//86 100//86 99//86
f 131//85 68//85 69//85
f 132//86 101//86 100//86
f 131//85 69//85 70//85
f 132//86 102//86 101//86
f 131//85 70//85 71//85
f 132//86 103//86 102//86
f 131//85 71//85 72//85
f 132//86 104//86 103//86
f 131//85 72//85 73//85
f 132//86 105//86 104//86
f 131//85 73//85 74//85
f 132//86 106//86 105//86
f 131//85 74//85 75//85
f 132//86 107//86 106//86
f 131//85 75//85 76//85
f 132//86 108//86 107//86
f 131//85 76//85 77//85
f 132//86 109//86 108//86
f 131//85 77//85 78//85
f 132//86 110//86 109//86
f 131//85 78//85 79//85
f 132//86 111//86 110//86
f 131//85 79//85 80//85
f 132//86 112//86 111//86
f 131//85 80//85 81//85
f 132//86 113//86 112//86
f 131//85 81//85 82//85
f 132//86 114//86 113//86
f 131//85 82//85 83//85
f 132//86 115//86 114//86
f 131//85 83//85 84//85
f 132//86 116//86 115//86
f 131//85 84//85 85//85
f 132//86 117//86 116//86
f 131//85 85//85 86//85
f 132//86 118//86 117//86
f 131//85 86//85 87//85
f 132//86 119//86 118//86
f 131//85 87//85 88//85
f 132//86 120//86 119//86
f 131//85 88//85 89//85
f 132//86 121//86 120//86
f 131//85 89//85 90//85
f 132//86 122//86 121//86
f 131//85 90//85 91//85
f 132//86 123//86 122//86
f 131//85 91//85 92//85
f 132//86 124//86 123//86
f 131//85 92//85 93//85
f 132//86 125//86 124//86
f 131//85 93//85 94//85
f 132//86 126//86 125//86
f 131//85 94//85 95//85
f 132//86 127//86 126//86
f 131//85 95//85 96//85
f 132//86 128//86 127//86
f 131//85 96//85 97//85
f 132//86 129//86 128//86
f 131//85 97//85 98//85
f 132//86 130//86 129//86
f 98//85 67//85 131//85
f 132//86 99//86 130//86
f 67//87 99//87 100//87 68//87
f 68//88 100//88 101//88 69//88
f 69//89 101//89 102//89 70//89
f 70//90 102//90 103//90 71//90
f 71//91 103//91 104//91 72//91
f 72//92 104//92 105//92 73//92
f 73//93 105//93 106//93 74//93
f 74//94 106//94 107//94 75//94
f 75//95 107//95 108//95 76//95
f 76//96 108//96 109//96 77//96
f 77//97 109//97 110//97 78//97
f 78//98 110//98 111//98 79//98
f 79//99 111//99 112//99 80//99
f 80//100 112//100 113//100 81//100
f 81//101 113//101 114//101 82//101
f 82//102 114//102 115//102 83//102
f 83//103 115//103 116//103 84//103
f 84//104 116//104 117//104 85//104
f 85//105 117//105 118//105 86//105
f 86//106 118//106 119//106 87//106
f 87//107 119//107 120//107 88//107
f 88//108 120//108 121//108 89//108
f 89//109 121//109 122//109 90//109
f 90//110 122//110 123//110 91//110
f 91//111 123//111 124//111 92//111
f 92//112 124//112 125//112 93//112
f 93//113 125//113 126//113 94//113
f 94//114 126//114 127//114 95//114
f 95//115 127//115 128//115 96//115
f 96//116 128//116 129//116 97//116
f 97//117 129//117 130//117 98//117
f 99//118 67//118 98//118 130//118
