# Blender v2.62 (sub 0) OBJ File: 'string-apparatus.blend'
# www.blender.org
mtllib string-apparatus.mtl
o Cylinder.001_Cylinder
v 1.047382 -0.943887 -0.005000
v 1.048358 -0.943904 -0.004904
v 1.049296 -0.943920 -0.004619
v 1.050160 -0.943935 -0.004157
v 1.050917 -0.943949 -0.003536
v 1.051539 -0.943960 -0.002778
v 1.052001 -0.943968 -0.001913
v 1.052286 -0.943973 -0.000975
v 1.052382 -0.943974 -0.000000
v 1.052286 -0.943973 0.000975
v 1.052001 -0.943968 0.001913
v 1.051539 -0.943960 0.002778
v 1.050917 -0.943949 0.003536
v 1.050160 -0.943935 0.004157
v 1.049296 -0.943920 0.004619
v 1.048358 -0.943904 0.004904
v 1.047382 -0.943887 0.005000
v 1.046407 -0.943870 0.004904
v 1.045469 -0.943854 0.004619
v 1.044605 -0.943839 0.004157
v 1.043847 -0.943825 0.003536
v 1.043226 -0.943814 0.002778
v 1.042764 -0.943806 0.001913
v 1.042479 -0.943801 0.000975
v 1.042383 -0.943800 -0.000000
v 1.042479 -0.943801 -0.000975
v 1.042764 -0.943806 -0.001913
v 1.043226 -0.943814 -0.002778
v 1.043847 -0.943825 -0.003536
v 1.044605 -0.943839 -0.004157
v 1.045469 -0.943854 -0.004619
v 1.046407 -0.943870 -0.004904
v 1.052618 -0.643933 -0.005000
v 1.053593 -0.643950 -0.004904
v 1.054531 -0.643966 -0.004619
v 1.055396 -0.643981 -0.004157
v 1.056153 -0.643994 -0.003536
v 1.056775 -0.644005 -0.002778
v 1.057237 -0.644013 -0.001913
v 1.057521 -0.644018 -0.000975
v 1.057617 -0.644020 0.000000
v 1.057521 -0.644018 0.000975
v 1.057237 -0.644013 0.001913
v 1.056775 -0.644005 0.002778
v 1.056153 -0.643994 0.003536
v 1.055396 -0.643981 0.004157
v 1.054531 -0.643966 0.004619
v 1.053593 -0.643950 0.004904
v 1.052618 -0.643933 0.005000
v 1.051643 -0.643916 0.004904
v 1.050705 -0.643899 0.004619
v 1.049841 -0.643884 0.004157
v 1.049083 -0.643871 0.003536
v 1.048461 -0.643860 0.002778
v 1.048000 -0.643852 0.001913
v 1.047715 -0.643847 0.000975
v 1.047619 -0.643845 0.000000
v 1.047715 -0.643847 -0.000975
v 1.047999 -0.643852 -0.001913
v 1.048461 -0.643860 -0.002778
v 1.049083 -0.643871 -0.003536
v 1.049841 -0.643884 -0.004157
v 1.050705 -0.643899 -0.004619
v 1.051643 -0.643916 -0.004904
v 1.047382 -0.943887 0.000000
v 1.052618 -0.643933 0.000000
v 1.050000 -0.968827 -0.077959
v 1.065209 -0.968827 -0.076461
v 1.079833 -0.968827 -0.072024
v 1.093311 -0.968827 -0.064820
v 1.105125 -0.968827 -0.055125
v 1.114820 -0.968827 -0.043311
v 1.122024 -0.968827 -0.029833
v 1.126461 -0.968827 -0.015209
v 1.127959 -0.968827 -0.000000
v 1.126461 -0.968827 0.015209
v 1.122024 -0.968827 0.029833
v 1.114820 -0.968827 0.043311
v 1.105125 -0.968827 0.055125
v 1.093311 -0.968827 0.064820
v 1.079833 -0.968827 0.072024
v 1.065209 -0.968827 0.076461
v 1.050000 -0.968827 0.077959
v 1.034791 -0.968827 0.076461
v 1.020167 -0.968827 0.072024
v 1.006688 -0.968827 0.064820
v 0.994875 -0.968827 0.055125
v 0.985180 -0.968827 0.043311
v 0.977976 -0.968827 0.029833
v 0.973539 -0.968827 0.015209
v 0.972041 -0.968827 -0.000000
v 0.973539 -0.968827 -0.015209
v 0.977976 -0.968827 -0.029834
v 0.985180 -0.968827 -0.043312
v 0.994875 -0.968827 -0.055125
v 1.006689 -0.968827 -0.064820
v 1.020167 -0.968827 -0.072024
v 1.034791 -0.968827 -0.076461
v 1.050000 -0.918992 -0.077959
v 1.065209 -0.918992 -0.076461
v 1.079834 -0.918992 -0.072024
v 1.093312 -0.918992 -0.064820
v 1.105125 -0.918992 -0.055125
v 1.114820 -0.918992 -0.043311
v 1.122024 -0.918992 -0.029833
v 1.126461 -0.918992 -0.015209
v 1.127959 -0.918992 0.000000
v 1.126461 -0.918992 0.015209
v 1.122024 -0.918992 0.029834
v 1.114820 -0.918992 0.043312
v 1.105125 -0.918992 0.055125
v 1.093311 -0.918992 0.064820
v 1.079833 -0.918992 0.072024
v 1.065209 -0.918992 0.076461
v 1.050000 -0.918992 0.077959
v 1.034791 -0.918992 0.076461
v 1.020167 -0.918992 0.072024
v 1.006689 -0.918992 0.064820
v 0.994875 -0.918992 0.055125
v 0.985180 -0.918992 0.043312
v 0.977976 -0.918992 0.029834
v 0.973539 -0.918992 0.015209
v 0.972041 -0.918992 0.000000
v 0.973539 -0.918992 -0.015209
v 0.977975 -0.918992 -0.029833
v 0.985180 -0.918992 -0.043311
v 0.994875 -0.918992 -0.055125
v 1.006688 -0.918992 -0.064820
v 1.020166 -0.918992 -0.072024
v 1.034791 -0.918992 -0.076460
v 1.050000 -0.968827 0.000000
v 1.050000 -0.918992 0.000000
vn -0.017475 -0.999847 0.000000
vn 0.017416 0.999848 0.000000
vn -0.017415 -0.999848 0.000012
vn 0.017532 0.999846 0.000023
vn -0.017445 -0.999848 -0.000001
vn 0.017393 0.999849 -0.000035
vn -0.017457 -0.999848 -0.000008
vn 0.017457 0.999848 0.000008
vn -0.017448 -0.999848 0.000001
vn 0.017491 0.999847 0.000042
vn -0.017473 -0.999847 -0.000037
vn 0.017451 0.999848 -0.000018
vn -0.017450 -0.999848 0.000018
vn 0.017473 0.999847 0.000036
vn -0.017452 -0.999848 0.000008
vn 0.017452 0.999848 -0.000069
vn -0.017452 -0.999848 -0.000008
vn 0.017452 0.999848 0.000069
vn -0.017450 -0.999848 -0.000018
vn 0.017473 0.999847 -0.000036
vn -0.017473 -0.999847 0.000037
vn 0.017451 0.999848 0.000018
vn -0.017448 -0.999848 -0.000001
vn 0.017491 0.999847 -0.000042
vn -0.017457 -0.999848 0.000008
vn 0.017457 0.999848 -0.000008
vn -0.017445 -0.999848 0.000001
vn 0.017393 0.999849 0.000035
vn -0.017415 -0.999848 -0.000012
vn 0.017532 0.999846 -0.000023
vn -0.017477 -0.999847 -0.000000
vn -0.017416 -0.999848 0.000012
vn 0.017530 0.999846 0.000023
vn -0.017444 -0.999848 0.000001
vn 0.017395 0.999849 -0.000033
vn 0.017448 0.999848 -0.000001
vn -0.017440 -0.999848 0.000012
vn 0.017440 0.999848 -0.000012
vn -0.017462 -0.999848 -0.000040
vn 0.017462 0.999848 0.000040
vn 0.017440 0.999848 -0.000068
vn 0.017440 0.999848 0.000068
vn -0.017462 -0.999848 0.000040
vn 0.017462 0.999848 -0.000042
vn -0.017440 -0.999848 -0.000012
vn 0.017439 0.999848 0.000014
vn 0.017448 0.999848 0.000001
vn -0.017444 -0.999848 -0.000001
vn 0.017395 0.999849 0.000033
vn -0.017416 -0.999848 -0.000012
vn 0.017532 0.999846 -0.000024
vn 0.017414 0.999848 -0.000000
vn 0.098002 -0.001711 -0.995185
vn 0.290242 -0.005066 -0.956940
vn 0.471316 -0.008227 -0.881926
vn 0.634293 -0.011072 -0.773013
vn 0.772914 -0.013491 -0.634367
vn 0.881780 -0.015392 -0.471410
vn 0.956792 -0.016701 -0.290292
vn 0.995031 -0.017369 -0.098041
vn 0.995031 -0.017369 0.098041
vn 0.956792 -0.016701 0.290292
vn 0.881780 -0.015392 0.471410
vn 0.772914 -0.013491 0.634368
vn 0.634293 -0.011072 0.773014
vn 0.471314 -0.008227 0.881927
vn 0.290241 -0.005066 0.956940
vn 0.098001 -0.001711 0.995185
vn -0.098007 0.001711 0.995184
vn -0.290224 0.005066 0.956945
vn -0.471314 0.008227 0.881927
vn -0.634292 0.011072 0.773014
vn -0.772914 0.013491 0.634368
vn -0.881805 0.015392 0.471363
vn -0.956775 0.016701 0.290348
vn -0.995031 0.017369 0.098041
vn -0.995031 0.017369 -0.098041
vn -0.956792 0.016701 -0.290292
vn -0.881780 0.015392 -0.471409
vn -0.772915 0.013492 -0.634367
vn -0.634293 0.011072 -0.773013
vn -0.471316 0.008227 -0.881926
vn -0.290244 0.005066 -0.956939
vn -0.098004 0.001711 -0.995185
vn -0.000000 -1.000000 0.000000
vn 0.000000 1.000000 -0.000000
vn 0.098018 -0.000000 -0.995185
vn 0.290285 0.000000 -0.956940
vn 0.471396 -0.000000 -0.881921
vn 0.634395 -0.000000 -0.773009
vn 0.773010 -0.000000 -0.634394
vn 0.881922 0.000000 -0.471395
vn 0.956941 0.000001 -0.290283
vn 0.995184 0.000000 -0.098019
vn 0.995185 -0.000000 0.098019
vn 0.956940 0.000000 0.290287
vn 0.881920 0.000001 0.471399
vn 0.773011 0.000000 0.634393
vn 0.634392 0.000000 0.773011
vn 0.471397 0.000000 0.881921
vn 0.290285 0.000000 0.956940
vn 0.098018 0.000000 0.995185
vn -0.098017 -0.000000 0.995185
vn -0.290284 -0.000000 0.956941
vn -0.471395 -0.000001 0.881922
vn -0.634393 -0.000000 0.773011
vn -0.773011 0.000000 0.634393
vn -0.881921 0.000000 0.471397
vn -0.956939 -0.000000 0.290288
vn -0.995185 -0.000000 0.098017
vn -0.995185 -0.000000 -0.098015
vn -0.956941 -0.000001 -0.290283
vn -0.881922 -0.000000 -0.471395
vn -0.773012 0.000001 -0.634392
vn -0.634395 0.000000 -0.773009
vn -0.471399 -0.000000 -0.881920
vn -0.290287 0.000000 -0.956940
vn -0.098018 0.000001 -0.995185
usemtl 
s off
f 65//1 1//1 2//1
f 66//2 34//2 33//2
f 65//3 2//3 3//3
f 66//4 35//4 34//4
f 65//5 3//5 4//5
f 66//6 36//6 35//6
f 65//7 4//7 5//7
f 66//8 37//8 36//8
f 65//9 5//9 6//9
f 66//10 38//10 37//10
f 65//11 6//11 7//11
f 66//12 39//12 38//12
f 65//13 7//13 8//13
f 66//14 40//14 39//14
f 65//15 8//15 9//15
f 66//16 41//16 40//16
f 65//17 9//17 10//17
f 66//18 42//18 41//18
f 65//19 10//19 11//19
f 66//20 43//20 42//20
f 65//21 11//21 12//21
f 66//22 44//22 43//22
f 65//23 12//23 13//23
f 66//24 45//24 44//24
f 65//25 13//25 14//25
f 66//26 46//26 45//26
f 65//27 14//27 15//27
f 66//28 47//28 46//28
f 65//29 15//29 16//29
f 66//30 48//30 47//30
f 65//1 16//1 17//1
f 66//2 49//2 48//2
f 65//31 17//31 18//31
f 66//2 50//2 49//2
f 65//32 18//32 19//32
f 66//33 51//33 50//33
f 65//34 19//34 20//34
f 66//35 52//35 51//35
f 65//7 20//7 21//7
f 66//8 53//8 52//8
f 65//9 21//9 22//9
f 66//36 54//36 53//36
f 65//37 22//37 23//37
f 66//38 55//38 54//38
f 65//39 23//39 24//39
f 66//40 56//40 55//40
f 65//15 24//15 25//15
f 66//41 57//41 56//41
f 65//17 25//17 26//17
f 66//42 58//42 57//42
f 65//43 26//43 27//43
f 66//44 59//44 58//44
f 65//45 27//45 28//45
f 66//46 60//46 59//46
f 65//23 28//23 29//23
f 66//47 61//47 60//47
f 65//25 29//25 30//25
f 66//26 62//26 61//26
f 65//48 30//48 31//48
f 66//49 63//49 62//49
f 65//50 31//50 32//50
f 66//51 64//51 63//51
f 32//31 1//31 65//31
f 66//52 33//52 64//52
f 1//53 33//53 34//53 2//53
f 2//54 34//54 35//54 3//54
f 3//55 35//55 36//55 4//55
f 4//56 36//56 37//56 5//56
f 5//57 37//57 38//57 6//57
f 6//58 38//58 39//58 7//58
f 7//59 39//59 40//59 8//59
f 8//60 40//60 41//60 9//60
f 9//61 41//61 42//61 10//61
f 10//62 42//62 43//62 11//62
f 11//63 43//63 44//63 12//63
f 12//64 44//64 45//64 13//64
f 13//65 45//65 46//65 14//65
f 14//66 46//66 47//66 15//66
f 15//67 47//67 48//67 16//67
f 16//68 48//68 49//68 17//68
f 17//69 49//69 50//69 18//69
f 18//70 50//70 51//70 19//70
f 19//71 51//71 52//71 20//71
f 20//72 52//72 53//72 21//72
f 21//73 53//73 54//73 22//73
f 22//74 54//74 55//74 23//74
f 23//75 55//75 56//75 24//75
f 24//76 56//76 57//76 25//76
f 25//77 57//77 58//77 26//77
f 26//78 58//78 59//78 27//78
f 27//79 59//79 60//79 28//79
f 28//80 60//80 61//80 29//80
f 29//81 61//81 62//81 30//81
f 30//82 62//82 63//82 31//82
f 31//83 63//83 64//83 32//83
f 33//84 1//84 32//84 64//84
f 131//85 67//85 68//85
f 132//86 100//86 99//86
f 131//85 68//85 69//85
f 132//86 101//86 100//86
f 131//85 69//85 70//85
f 132//86 102//86 101//86
f 131//85 70//85 71//85
f 132//86 103//86 102//86
f 131//85 71//85 72//85
f 132//86 104//86 103//86
f 131//85 72//85 73//85
f 132//86 105//86 104//86
f 131//85 73//85 74//85
f 132//86 106//86 105//86
f 131//85 74//85 75//85
f 132//86 107//86 106//86
f 131//85 75//85 76//85
f 132//86 108//86 107//86
f 131//85 76//85 77//85
f 132//86 109//86 108//86
f 131//85 77//85 78//85
f 132//86 110//86 109//86
f 131//85 78//85 79//85
f 132//86 111//86 110//86
f 131//85 79//85 80//85
f 132//86 112//86 111//86
f 131//85 80//85 81//85
f 132//86 113//86 112//86
f 131//85 81//85 82//85
f 132//86 114//86 113//86
f 131//85 82//85 83//85
f 132//86 115//86 114//86
f 131//85 83//85 84//85
f 132//86 116//86 115//86
f 131//85 84//85 85//85
f 132//86 117//86 116//86
f 131//85 85//85 86//85
f 132//86 118//86 117//86
f 131//85 86//85 87//85
f 132//86 119//86 118//86
f 131//85 87//85 88//85
f 132//86 120//86 119//86
f 131//85 88//85 89//85
f 132//86 121//86 120//86
f 131//85 89//85 90//85
f 132//86 122//86 121//86
f 131//85 90//85 91//85
f 132//86 123//86 122//86
f 131//85 91//85 92//85
f 132//86 124//86 123//86
f 131//85 92//85 93//85
f 132//86 125//86 124//86
f 131//85 93//85 94//85
f 132//86 126//86 125//86
f 131//85 94//85 95//85
f 132//86 127//86 126//86
f 131//85 95//85 96//85
f 132//86 128//86 127//86
f 131//85 96//85 97//85
f 132//86 129//86 128//86
f 131//85 97//85 98//85
f 132//86 130//86 129//86
f 98//85 67//85 131//85
f 132//86 99//86 130//86
f 67//87 99//87 100//87 68//87
f 68//88 100//88 101//88 69//88
f 69//89 101//89 102//89 70//89
f 70//90 102//90 103//90 71//90
f 71//91 103//91 104//91 72//91
f 72//92 104//92 105//92 73//92
f 73//93 105//93 106//93 74//93
f 74//94 106//94 107//94 75//94
f 75//95 107//95 108//95 76//95
f 76//96 108//96 109//96 77//96
f 77//97 109//97 110//97 78//97
f 78//98 110//98 111//98 79//98
f 79//99 111//99 112//99 80//99
f 80//100 112//100 113//100 81//100
f 81//101 113//101 114//101 82//101
f 82//102 114//102 115//102 83//102
f 83//103 115//103 116//103 84//103
f 84//104 116//104 117//104 85//104
f 85//105 117//105 118//105 86//105
f 86//106 118//106 119//106 87//106
f 87//107 119//107 120//107 88//107
f 88//108 120//108 121//108 89//108
f 89//109 121//109 122//109 90//109
f 90//110 122//110 123//110 91//110
f 91//111 123//111 124//111 92//111
f 92//112 124//112 125//112 93//112
f 93//113 125//113 126//113 94//113
f 94//114 126//114 127//114 95//114
f 95//115 127//115 128//115 96//115
f 96//116 128//116 129//116 97//116
f 97//117 129//117 130//117 98//117
f 99//118 67//118 98//118 130//118
o Cylinder_wheel
v 1.000000 -0.003641 -0.050000
v 1.009755 -0.004601 -0.050000
v 1.019134 -0.007447 -0.050000
v 1.027779 -0.012067 -0.050000
v 1.035355 -0.018285 -0.050000
v 1.041574 -0.025862 -0.050000
v 1.046194 -0.034506 -0.050000
v 1.049039 -0.043886 -0.050000
v 1.050000 -0.053641 -0.050000
v 1.049039 -0.063395 -0.050000
v 1.046194 -0.072775 -0.050000
v 1.041574 -0.081419 -0.050000
v 1.035355 -0.088996 -0.050000
v 1.027779 -0.095214 -0.050000
v 1.019134 -0.099835 -0.050000
v 1.009755 -0.102680 -0.050000
v 1.000000 -0.103641 -0.050000
v 0.990245 -0.102680 -0.050000
v 0.980866 -0.099835 -0.050000
v 0.972221 -0.095214 -0.050000
v 0.964645 -0.088996 -0.050000
v 0.958426 -0.081419 -0.050000
v 0.953806 -0.072775 -0.050000
v 0.950961 -0.063395 -0.050000
v 0.950000 -0.053641 -0.050000
v 0.950961 -0.043886 -0.050000
v 0.953806 -0.034506 -0.050000
v 0.958427 -0.025862 -0.050000
v 0.964645 -0.018285 -0.050000
v 0.972222 -0.012067 -0.050000
v 0.980866 -0.007447 -0.050000
v 0.990246 -0.004601 -0.050000
v 1.000000 -0.003641 0.050000
v 1.009755 -0.004601 0.050000
v 1.019134 -0.007447 0.050000
v 1.027779 -0.012067 0.050000
v 1.035355 -0.018285 0.050000
v 1.041574 -0.025862 0.050000
v 1.046194 -0.034507 0.050000
v 1.049039 -0.043886 0.050000
v 1.050000 -0.053641 0.050000
v 1.049039 -0.063395 0.050000
v 1.046194 -0.072775 0.050000
v 1.041573 -0.081419 0.050000
v 1.035355 -0.088996 0.050000
v 1.027779 -0.095214 0.050000
v 1.019134 -0.099835 0.050000
v 1.009755 -0.102680 0.050000
v 1.000000 -0.103641 0.050000
v 0.990246 -0.102680 0.050000
v 0.980866 -0.099835 0.050000
v 0.972222 -0.095214 0.050000
v 0.964645 -0.088996 0.050000
v 0.958427 -0.081419 0.050000
v 0.953806 -0.072775 0.050000
v 0.950961 -0.063395 0.050000
v 0.950000 -0.053641 0.050000
v 0.950961 -0.043886 0.050000
v 0.953806 -0.034507 0.050000
v 0.958426 -0.025862 0.050000
v 0.964644 -0.018285 0.050000
v 0.972221 -0.012067 0.050000
v 0.980866 -0.007447 0.050000
v 0.990245 -0.004601 0.050000
v 1.000000 -0.053641 -0.050000
v 1.000000 -0.053641 0.050000
vn -0.000000 0.000001 -1.000000
vn 0.000000 -0.000001 1.000000
vn 0.000000 0.000000 -1.000000
vn -0.000000 -0.000000 1.000000
vn 0.098018 0.995185 0.000001
vn 0.290286 0.956940 0.000001
vn 0.471397 0.881921 0.000000
vn 0.634394 0.773010 0.000000
vn 0.773011 0.634393 0.000000
vn 0.881924 0.471391 0.000001
vn 0.956940 0.290285 0.000000
vn 0.995185 0.098014 0.000000
vn 0.995185 -0.098014 -0.000000
vn 0.956940 -0.290285 -0.000000
vn 0.881921 -0.471397 -0.000000
vn 0.773010 -0.634393 -0.000000
vn 0.634393 -0.773011 -0.000001
vn 0.471396 -0.881922 -0.000001
vn 0.290285 -0.956940 -0.000001
vn 0.098017 -0.995185 -0.000001
vn -0.098017 -0.995185 -0.000001
vn -0.290285 -0.956940 -0.000001
vn -0.471396 -0.881922 -0.000001
vn -0.634391 -0.773012 -0.000001
vn -0.773010 -0.634393 -0.000000
vn -0.881921 -0.471397 -0.000000
vn -0.956940 -0.290285 -0.000000
vn -0.995184 -0.098020 -0.000000
vn -0.995185 0.098017 0.000000
vn -0.956941 0.290282 0.000000
vn -0.881923 0.471394 0.000000
vn -0.773011 0.634393 0.000000
vn -0.634394 0.773010 0.000000
vn -0.471399 0.881920 0.000001
vn -0.290287 0.956940 0.000001
vn -0.098018 0.995185 0.000001
usemtl wheel
s off
f 197//119 133//119 134//119
f 198//120 166//120 165//120
f 197//119 134//119 135//119
f 198//120 167//120 166//120
f 197//119 135//119 136//119
f 198//120 168//120 167//120
f 197//119 136//119 137//119
f 198//120 169//120 168//120
f 197//119 137//119 138//119
f 198//120 170//120 169//120
f 197//119 138//119 139//119
f 198//120 171//120 170//120
f 197//121 139//121 140//121
f 198//122 172//122 171//122
f 197//119 140//119 141//119
f 198//120 173//120 172//120
f 197//119 141//119 142//119
f 198//120 174//120 173//120
f 197//121 142//121 143//121
f 198//122 175//122 174//122
f 197//119 143//119 144//119
f 198//120 176//120 175//120
f 197//119 144//119 145//119
f 198//120 177//120 176//120
f 197//119 145//119 146//119
f 198//120 178//120 177//120
f 197//119 146//119 147//119
f 198//120 179//120 178//120
f 197//119 147//119 148//119
f 198//120 180//120 179//120
f 197//119 148//119 149//119
f 198//120 181//120 180//120
f 197//119 149//119 150//119
f 198//120 182//120 181//120
f 197//119 150//119 151//119
f 198//120 183//120 182//120
f 197//119 151//119 152//119
f 198//120 184//120 183//120
f 197//119 152//119 153//119
f 198//120 185//120 184//120
f 197//119 153//119 154//119
f 198//120 186//120 185//120
f 197//119 154//119 155//119
f 198//120 187//120 186//120
f 197//121 155//121 156//121
f 198//122 188//122 187//122
f 197//119 156//119 157//119
f 198//120 189//120 188//120
f 197//119 157//119 158//119
f 198//120 190//120 189//120
f 197//121 158//121 159//121
f 198//122 191//122 190//122
f 197//119 159//119 160//119
f 198//120 192//120 191//120
f 197//119 160//119 161//119
f 198//120 193//120 192//120
f 197//119 161//119 162//119
f 198//120 194//120 193//120
f 197//119 162//119 163//119
f 198//120 195//120 194//120
f 197//119 163//119 164//119
f 198//120 196//120 195//120
f 164//119 133//119 197//119
f 198//120 165//120 196//120
f 133//123 165//123 166//123 134//123
f 134//124 166//124 167//124 135//124
f 135//125 167//125 168//125 136//125
f 136//126 168//126 169//126 137//126
f 137//127 169//127 170//127 138//127
f 138//128 170//128 171//128 139//128
f 139//129 171//129 172//129 140//129
f 140//130 172//130 173//130 141//130
f 141//131 173//131 174//131 142//131
f 142//132 174//132 175//132 143//132
f 143//133 175//133 176//133 144//133
f 144//134 176//134 177//134 145//134
f 145//135 177//135 178//135 146//135
f 146//136 178//136 179//136 147//136
f 147//137 179//137 180//137 148//137
f 148//138 180//138 181//138 149//138
f 149//139 181//139 182//139 150//139
f 150//140 182//140 183//140 151//140
f 151//141 183//141 184//141 152//141
f 152//142 184//142 185//142 153//142
f 153//143 185//143 186//143 154//143
f 154//144 186//144 187//144 155//144
f 155//145 187//145 188//145 156//145
f 156//146 188//146 189//146 157//146
f 157//147 189//147 190//147 158//147
f 158//148 190//148 191//148 159//148
f 159//149 191//149 192//149 160//149
f 160//150 192//150 193//150 161//150
f 161//151 193//151 194//151 162//151
f 162//152 194//152 195//152 163//152
f 163//153 195//153 196//153 164//153
f 165//154 133//154 164//154 196//154
o Cube.002_vibrator
v -1.000000 -0.012525 0.006982
v -1.000000 -0.012525 -0.006982
v -1.383464 -0.096918 -0.145344
v -1.383464 -0.096918 0.145344
v -1.000000 0.005244 0.006982
v -1.000000 0.005244 -0.006982
v -1.383464 0.089637 -0.145344
v -1.383464 0.089637 0.145344
vn -0.214937 0.976628 0.000000
vn -0.214937 -0.976628 0.000001
vn -1.000000 0.000000 0.000017
vn -0.339404 -0.000001 0.940641
vn 1.000000 0.000001 -0.000001
vn -0.339404 -0.000000 -0.940641
usemtl vibrator
s off
f 199//155 200//155 201//155 202//155
f 203//156 206//156 205//156 204//156
f 199//157 203//157 204//157 200//157
f 200//158 204//158 205//158 201//158
f 201//159 205//159 206//159 202//159
f 203//160 199//160 202//160 206//160
o Cube.001_stand
v -1.289238 -0.895496 -0.363242
v -1.289238 -0.895496 0.283733
v -1.459262 -0.895496 0.283733
v -1.459262 -0.895496 -0.363242
v -1.289238 1.104504 -0.363242
v -1.289238 1.104504 0.283733
v -1.459262 1.104504 0.283733
v -1.459262 1.104504 -0.363242
vn 1.000000 -0.000000 0.000000
vn -0.000001 -0.000000 1.000000
vn -1.000000 0.000000 -0.000000
vn 0.000001 0.000000 -1.000000
usemtl stand
s off
f 207//85 208//85 209//85 210//85
f 211//86 214//86 213//86 212//86
f 207//161 211//161 212//161 208//161
f 208//162 212//162 213//162 209//162
f 209//163 213//163 214//163 210//163
f 211//164 207//164 210//164 214//164
o Cube_desk
v 0.865251 -2.862395 -0.373621
v 0.865251 -2.862395 0.373621
v -1.984040 -2.862395 0.373621
v -1.984039 -2.862395 -0.373621
v 0.865252 -0.862395 -0.373621
v 0.865250 -0.862395 0.373621
v -1.984040 -0.862395 0.373621
v -1.984039 -0.862395 -0.373621
vn 1.000000 0.000000 0.000002
vn -1.000000 -0.000000 -0.000001
usemtl desk
s off
f 215//85 216//85 217//85 218//85
f 219//86 222//86 221//86 220//86
f 215//165 219//165 220//165 216//165
f 216//122 220//122 221//122 217//122
f 217//166 221//166 222//166 218//166
f 219//121 215//121 218//121 222//121
